<svg viewBox="0 0 612 555" xmlns="http://www.w3.org/2000/svg" fill-rule="evenodd" clip-rule="evenodd" stroke-linejoin="round" stroke-miterlimit="1.414"><path fill="none" d="M0 0h612v554.342H0z"/><clipPath id="a"><path d="M0 0h612v554.342H0z"/></clipPath><g clip-path="url(#a)"><path d="M87.271 486.959C31.546 437.888 0 364.172 0 278.441 0 122.211 138.283-4.988 303.133.15c61.235 1.909 113.608 21.856 154.273 54.577l-132.204 92.605a154.009 154.009 0 0 0-24.457-1.945c-81.345 0-147.387 63.473-147.387 141.653 0 73.081 57.707 133.31 131.678 140.857-28.208 23.249-77.296 57.854-197.765 59.062z" fill="#0078c4"/><path d="M373.61 213.959c-2.29-48.374-10.996-84.816-10.996-84.816l183.673 39.452c.403 17.996 1.278 37.737.953 59.794l64.76 5.382-2.389 106.061-70.293 7.885c-32.763 118.591-138.821 206.625-278.133 206.625-77.728 0-150.519-18.936-197.673-60.812 113.227 6.082 206.28-20.824 268.048-100.668 5.719-7.392 10.724-15.278 15.093-23.533l-86.278 9.679.955-174.38 112.28 9.331z" fill="#ffa817"/></g></svg>